<svg id="visual" viewBox="0 0 900 600" width="900" height="600" xmlns="http://www.w3.org/2000/svg" xmlns:xlink="http://www.w3.org/1999/xlink" version="1.1"><rect x="0" y="0" width="900" height="600" fill="#ffffff"></rect><defs><linearGradient id="grad1_0" x1="33.3%" y1="0%" x2="100%" y2="100%"><stop offset="20%" stop-color="#2563eb" stop-opacity="1"></stop><stop offset="80%" stop-color="#2563eb" stop-opacity="1"></stop></linearGradient></defs><defs><linearGradient id="grad1_1" x1="33.3%" y1="0%" x2="100%" y2="100%"><stop offset="20%" stop-color="#2563eb" stop-opacity="1"></stop><stop offset="80%" stop-color="#7887f1" stop-opacity="1"></stop></linearGradient></defs><defs><linearGradient id="grad1_2" x1="33.3%" y1="0%" x2="100%" y2="100%"><stop offset="20%" stop-color="#aaadf7" stop-opacity="1"></stop><stop offset="80%" stop-color="#7887f1" stop-opacity="1"></stop></linearGradient></defs><defs><linearGradient id="grad1_3" x1="33.3%" y1="0%" x2="100%" y2="100%"><stop offset="20%" stop-color="#aaadf7" stop-opacity="1"></stop><stop offset="80%" stop-color="#d6d5fb" stop-opacity="1"></stop></linearGradient></defs><defs><linearGradient id="grad1_4" x1="33.3%" y1="0%" x2="100%" y2="100%"><stop offset="20%" stop-color="#ffffff" stop-opacity="1"></stop><stop offset="80%" stop-color="#d6d5fb" stop-opacity="1"></stop></linearGradient></defs><defs><linearGradient id="grad2_0" x1="0%" y1="0%" x2="66.7%" y2="100%"><stop offset="20%" stop-color="#2563eb" stop-opacity="1"></stop><stop offset="80%" stop-color="#2563eb" stop-opacity="1"></stop></linearGradient></defs><defs><linearGradient id="grad2_1" x1="0%" y1="0%" x2="66.7%" y2="100%"><stop offset="20%" stop-color="#7887f1" stop-opacity="1"></stop><stop offset="80%" stop-color="#2563eb" stop-opacity="1"></stop></linearGradient></defs><defs><linearGradient id="grad2_2" x1="0%" y1="0%" x2="66.7%" y2="100%"><stop offset="20%" stop-color="#7887f1" stop-opacity="1"></stop><stop offset="80%" stop-color="#aaadf7" stop-opacity="1"></stop></linearGradient></defs><defs><linearGradient id="grad2_3" x1="0%" y1="0%" x2="66.7%" y2="100%"><stop offset="20%" stop-color="#d6d5fb" stop-opacity="1"></stop><stop offset="80%" stop-color="#aaadf7" stop-opacity="1"></stop></linearGradient></defs><defs><linearGradient id="grad2_4" x1="0%" y1="0%" x2="66.7%" y2="100%"><stop offset="20%" stop-color="#d6d5fb" stop-opacity="1"></stop><stop offset="80%" stop-color="#ffffff" stop-opacity="1"></stop></linearGradient></defs><g transform="translate(900, 0)"><path d="M0 486.7C-70.3 487.4 -140.6 488.1 -186.3 449.7C-232 411.3 -253.1 333.7 -280.7 280.7C-308.3 227.7 -342.4 199.2 -377.9 156.5C-413.3 113.8 -450 56.9 -486.7 0L0 0Z" fill="#ebeafd"></path><path d="M0 389.4C-56.2 389.9 -112.5 390.5 -149 359.8C-185.6 329 -202.5 267 -224.6 224.6C-246.7 182.2 -274 159.4 -302.3 125.2C-330.6 91.1 -360 45.5 -389.4 0L0 0Z" fill="#c1c1f9"></path><path d="M0 292C-42.2 292.5 -84.3 292.9 -111.8 269.8C-139.2 246.8 -151.9 200.2 -168.4 168.4C-185 136.6 -205.5 119.5 -226.7 93.9C-248 68.3 -270 34.1 -292 0L0 0Z" fill="#939af4"></path><path d="M0 194.7C-28.1 195 -56.2 195.2 -74.5 179.9C-92.8 164.5 -101.2 133.5 -112.3 112.3C-123.3 91.1 -137 79.7 -151.1 62.6C-165.3 45.5 -180 22.8 -194.7 0L0 0Z" fill="#5875ee"></path><path d="M0 97.3C-14.1 97.5 -28.1 97.6 -37.3 89.9C-46.4 82.3 -50.6 66.7 -56.1 56.1C-61.7 45.5 -68.5 39.8 -75.6 31.3C-82.7 22.8 -90 11.4 -97.3 0L0 0Z" fill="#2563eb"></path></g><g transform="translate(0, 600)"><path d="M0 -486.7C62.1 -466.8 124.2 -446.8 171.8 -414.8C219.5 -382.8 252.7 -338.8 301.9 -301.9C351.1 -265.1 416.2 -235.4 449.7 -186.3C483.2 -137.1 485 -68.6 486.7 0L0 0Z" fill="#ebeafd"></path><path d="M0 -389.4C49.7 -373.4 99.3 -357.5 137.5 -331.9C175.6 -306.3 202.2 -271 241.5 -241.5C280.9 -212.1 333 -188.3 359.8 -149C386.5 -109.7 388 -54.9 389.4 0L0 0Z" fill="#c1c1f9"></path><path d="M0 -292C37.2 -280.1 74.5 -268.1 103.1 -248.9C131.7 -229.7 151.6 -203.3 181.2 -181.2C210.7 -159 249.7 -141.2 269.8 -111.8C289.9 -82.3 291 -41.1 292 0L0 0Z" fill="#939af4"></path><path d="M0 -194.7C24.8 -186.7 49.7 -178.7 68.7 -165.9C87.8 -153.1 101.1 -135.5 120.8 -120.8C140.4 -106 166.5 -94.2 179.9 -74.5C193.3 -54.9 194 -27.4 194.7 0L0 0Z" fill="#5875ee"></path><path d="M0 -97.3C12.4 -93.4 24.8 -89.4 34.4 -83C43.9 -76.6 50.5 -67.8 60.4 -60.4C70.2 -53 83.2 -47.1 89.9 -37.3C96.6 -27.4 97 -13.7 97.3 0L0 0Z" fill="#2563eb"></path></g></svg>