<svg id="visual" viewBox="0 0 900 600" width="900" height="600" xmlns="http://www.w3.org/2000/svg" xmlns:xlink="http://www.w3.org/1999/xlink" version="1.1"><g stroke-width="1" stroke-linejoin="bevel"><path d="M463 310L391 317L437 393Z" fill="#151518" stroke="#151518"></path><path d="M437 393L509 412L463 310Z" fill="#39393f" stroke="#39393f"></path><path d="M463 310L412 197L391 317Z" fill="#1e1e22" stroke="#1e1e22"></path><path d="M634 274L503 209L463 310Z" fill="#17171a" stroke="#17171a"></path><path d="M463 310L503 209L412 197Z" fill="#323237" stroke="#323237"></path><path d="M268 310L275 381L391 317Z" fill="#17171a" stroke="#17171a"></path><path d="M391 317L275 381L437 393Z" fill="#18181b" stroke="#18181b"></path><path d="M437 393L514 497L509 412Z" fill="#18181b" stroke="#18181b"></path><path d="M412 197L321 229L391 317Z" fill="#1e1e22" stroke="#1e1e22"></path><path d="M321 229L268 310L391 317Z" fill="#131316" stroke="#131316"></path><path d="M368 520L514 497L437 393Z" fill="#1e1e22" stroke="#1e1e22"></path><path d="M509 412L634 274L463 310Z" fill="#161619" stroke="#161619"></path><path d="M514 497L568 464L509 412Z" fill="#2b2b30" stroke="#2b2b30"></path><path d="M294 478L368 520L437 393Z" fill="#252529" stroke="#252529"></path><path d="M275 381L294 478L437 393Z" fill="#39393f" stroke="#39393f"></path><path d="M568 464L614 432L509 412Z" fill="#1e1e22" stroke="#1e1e22"></path><path d="M321 229L238 271L268 310Z" fill="#131316" stroke="#131316"></path><path d="M268 310L171 400L275 381Z" fill="#17171a" stroke="#17171a"></path><path d="M275 381L231 503L294 478Z" fill="#131316" stroke="#131316"></path><path d="M614 432L634 274L509 412Z" fill="#161619" stroke="#161619"></path><path d="M634 274L575 170L503 209Z" fill="#2b2b30" stroke="#2b2b30"></path><path d="M503 209L460 93L412 197Z" fill="#161619" stroke="#161619"></path><path d="M321 229L232 220L238 271Z" fill="#141417" stroke="#141417"></path><path d="M323 94L232 220L321 229Z" fill="#252529" stroke="#252529"></path><path d="M323 94L321 229L412 197Z" fill="#2b2b30" stroke="#2b2b30"></path><path d="M614 432L670 364L634 274Z" fill="#252529" stroke="#252529"></path><path d="M171 400L268 310L139 364Z" fill="#252529" stroke="#252529"></path><path d="M171 400L231 503L275 381Z" fill="#141417" stroke="#141417"></path><path d="M294 478L312 600L368 520Z" fill="#2b2b30" stroke="#2b2b30"></path><path d="M575 170L460 93L503 209Z" fill="#1e1e22" stroke="#1e1e22"></path><path d="M634 274L673 269L575 170Z" fill="#323237" stroke="#323237"></path><path d="M670 364L673 269L634 274Z" fill="#2b2b30" stroke="#2b2b30"></path><path d="M312 600L382 600L368 520Z" fill="#141417" stroke="#141417"></path><path d="M368 520L486 600L514 497Z" fill="#141417" stroke="#141417"></path><path d="M514 497L596 600L568 464Z" fill="#39393f" stroke="#39393f"></path><path d="M568 464L695 504L614 432Z" fill="#252529" stroke="#252529"></path><path d="M382 600L486 600L368 520Z" fill="#1e1e22" stroke="#1e1e22"></path><path d="M614 432L695 504L670 364Z" fill="#252529" stroke="#252529"></path><path d="M139 364L268 310L238 271Z" fill="#161619" stroke="#161619"></path><path d="M722 208L594 135L575 170Z" fill="#18181b" stroke="#18181b"></path><path d="M575 170L594 135L460 93Z" fill="#18181b" stroke="#18181b"></path><path d="M424 65L323 94L412 197Z" fill="#151518" stroke="#151518"></path><path d="M383 0L424 65L539 0Z" fill="#161619" stroke="#161619"></path><path d="M460 93L424 65L412 197Z" fill="#323237" stroke="#323237"></path><path d="M231 503L312 600L294 478Z" fill="#131316" stroke="#131316"></path><path d="M171 400L131 510L231 503Z" fill="#161619" stroke="#161619"></path><path d="M96 326L139 364L238 271Z" fill="#1e1e22" stroke="#1e1e22"></path><path d="M486 600L596 600L514 497Z" fill="#1e1e22" stroke="#1e1e22"></path><path d="M596 600L695 504L568 464Z" fill="#17171a" stroke="#17171a"></path><path d="M809 272L722 208L673 269Z" fill="#141417" stroke="#141417"></path><path d="M311 0L227 98L323 94Z" fill="#18181b" stroke="#18181b"></path><path d="M323 94L227 98L232 220Z" fill="#18181b" stroke="#18181b"></path><path d="M232 220L96 326L238 271Z" fill="#2b2b30" stroke="#2b2b30"></path><path d="M673 269L722 208L575 170Z" fill="#323237" stroke="#323237"></path><path d="M809 272L673 269L670 364Z" fill="#1e1e22" stroke="#1e1e22"></path><path d="M119 162L96 326L232 220Z" fill="#151518" stroke="#151518"></path><path d="M139 364L131 510L171 400Z" fill="#151518" stroke="#151518"></path><path d="M0 420L131 510L139 364Z" fill="#131316" stroke="#131316"></path><path d="M231 503L166 600L312 600Z" fill="#252529" stroke="#252529"></path><path d="M424 65L383 0L323 94Z" fill="#2b2b30" stroke="#2b2b30"></path><path d="M539 0L424 65L460 93Z" fill="#17171a" stroke="#17171a"></path><path d="M539 0L460 93L594 135Z" fill="#141417" stroke="#141417"></path><path d="M722 208L711 124L594 135Z" fill="#141417" stroke="#141417"></path><path d="M227 98L119 162L232 220Z" fill="#323237" stroke="#323237"></path><path d="M111 73L119 162L227 98Z" fill="#2b2b30" stroke="#2b2b30"></path><path d="M594 0L539 0L594 135Z" fill="#151518" stroke="#151518"></path><path d="M383 0L311 0L323 94Z" fill="#17171a" stroke="#17171a"></path><path d="M131 510L166 600L231 503Z" fill="#252529" stroke="#252529"></path><path d="M720 600L776 490L695 504Z" fill="#151518" stroke="#151518"></path><path d="M695 504L803 412L670 364Z" fill="#2b2b30" stroke="#2b2b30"></path><path d="M722 208L810 174L711 124Z" fill="#161619" stroke="#161619"></path><path d="M776 490L803 412L695 504Z" fill="#2b2b30" stroke="#2b2b30"></path><path d="M672 0L594 0L594 135Z" fill="#2b2b30" stroke="#2b2b30"></path><path d="M596 600L720 600L695 504Z" fill="#323237" stroke="#323237"></path><path d="M803 412L809 272L670 364Z" fill="#141417" stroke="#141417"></path><path d="M809 272L810 174L722 208Z" fill="#39393f" stroke="#39393f"></path><path d="M711 124L672 0L594 135Z" fill="#39393f" stroke="#39393f"></path><path d="M0 520L100 600L131 510Z" fill="#17171a" stroke="#17171a"></path><path d="M131 510L100 600L166 600Z" fill="#2b2b30" stroke="#2b2b30"></path><path d="M180 0L111 73L227 98Z" fill="#18181b" stroke="#18181b"></path><path d="M119 162L0 304L96 326Z" fill="#323237" stroke="#323237"></path><path d="M786 100L672 0L711 124Z" fill="#323237" stroke="#323237"></path><path d="M311 0L180 0L227 98Z" fill="#131316" stroke="#131316"></path><path d="M720 600L776 600L776 490Z" fill="#18181b" stroke="#18181b"></path><path d="M900 437L900 328L803 412Z" fill="#18181b" stroke="#18181b"></path><path d="M0 162L0 304L119 162Z" fill="#151518" stroke="#151518"></path><path d="M96 326L0 420L139 364Z" fill="#323237" stroke="#323237"></path><path d="M810 174L786 100L711 124Z" fill="#17171a" stroke="#17171a"></path><path d="M0 304L0 420L96 326Z" fill="#1e1e22" stroke="#1e1e22"></path><path d="M0 420L0 520L131 510Z" fill="#151518" stroke="#151518"></path><path d="M0 97L0 162L119 162Z" fill="#2b2b30" stroke="#2b2b30"></path><path d="M0 97L119 162L111 73Z" fill="#323237" stroke="#323237"></path><path d="M803 412L900 328L809 272Z" fill="#18181b" stroke="#18181b"></path><path d="M809 272L900 191L810 174Z" fill="#17171a" stroke="#17171a"></path><path d="M810 174L900 105L786 100Z" fill="#18181b" stroke="#18181b"></path><path d="M900 437L803 412L900 472Z" fill="#161619" stroke="#161619"></path><path d="M180 0L104 0L111 73Z" fill="#323237" stroke="#323237"></path><path d="M900 472L803 412L776 490Z" fill="#17171a" stroke="#17171a"></path><path d="M900 600L900 472L776 490Z" fill="#141417" stroke="#141417"></path><path d="M900 328L900 191L809 272Z" fill="#151518" stroke="#151518"></path><path d="M786 100L814 0L672 0Z" fill="#131316" stroke="#131316"></path><path d="M0 0L0 97L111 73Z" fill="#39393f" stroke="#39393f"></path><path d="M0 520L0 600L100 600Z" fill="#151518" stroke="#151518"></path><path d="M900 105L814 0L786 100Z" fill="#18181b" stroke="#18181b"></path><path d="M900 191L900 105L810 174Z" fill="#131316" stroke="#131316"></path><path d="M776 600L900 600L776 490Z" fill="#161619" stroke="#161619"></path><path d="M104 0L0 0L111 73Z" fill="#39393f" stroke="#39393f"></path><path d="M900 105L900 0L814 0Z" fill="#17171a" stroke="#17171a"></path></g></svg>